HIERARCHY
ROOT Pelvis
{
	OFFSET 0.000000 0.000000 0.000000
	CHANNELS 6 Xposition Yposition Zposition Zrotation Yrotation Xrotation 
	JOINT Left_hip
	{
		OFFSET 0.076090 -0.089427 -0.010735
		CHANNELS 3 Zrotation Yrotation Xrotation
		JOINT Left_knee
		{
			OFFSET 0.030200 -0.359518 -0.003501
			CHANNELS 3 Zrotation Yrotation Xrotation
			JOINT Left_ankle
			{
				OFFSET -0.011005 -0.371022 -0.045888
				CHANNELS 3 Zrotation Yrotation Xrotation
				JOINT Left_foot
				{
					OFFSET 0.023930 -0.052103 0.111084
					CHANNELS 3 Zrotation Yrotation Xrotation
					End Site
					{
						OFFSET 0.000000 0.000000 0.000000
					}
				}
			}
		}
	}
	JOINT Right_hip
	{
		OFFSET -0.073836 -0.088112 -0.007709
		CHANNELS 3 Zrotation Yrotation Xrotation
		JOINT Right_knee
		{
			OFFSET -0.035715 -0.367809 -0.006536
			CHANNELS 3 Zrotation Yrotation Xrotation
			JOINT Right_ankle
			{
				OFFSET 0.013718 -0.371958 -0.043815
				CHANNELS 3 Zrotation Yrotation Xrotation
				JOINT Right_foot
				{
					OFFSET -0.021936 -0.046387 0.114542
					CHANNELS 3 Zrotation Yrotation Xrotation
					End Site
					{
						OFFSET 0.000000 0.000000 0.000000
					}
				}
			}
		}
	}
	JOINT Spine1
	{
		OFFSET -0.001865 0.102064 -0.019455
		CHANNELS 3 Zrotation Yrotation Xrotation
		JOINT Spine2
		{
			OFFSET 0.003082 0.129260 -0.001938
			CHANNELS 3 Zrotation Yrotation Xrotation
			JOINT Spine3
			{
				OFFSET 0.001104 0.048093 0.026561
				CHANNELS 3 Zrotation Yrotation Xrotation
				JOINT Neck
				{
					OFFSET -0.002010 0.204222 -0.047183
					CHANNELS 3 Zrotation Yrotation Xrotation
					JOINT Head
					{
						OFFSET 0.005050 0.063649 0.048489
						CHANNELS 3 Zrotation Yrotation Xrotation
						End Site
						{
							OFFSET 0.000000 0.000000 0.000000
						}
					}
				}
				JOINT Left_collar
				{
					OFFSET 0.072979 0.114065 -0.031633
					CHANNELS 3 Zrotation Yrotation Xrotation
					JOINT Left_shoulder
					{
						OFFSET 0.083419 0.032092 -0.006530
						CHANNELS 3 Zrotation Yrotation Xrotation
						JOINT Left_elbow
						{
							OFFSET 0.239393 -0.012014 -0.025060
							CHANNELS 3 Zrotation Yrotation Xrotation
							JOINT Left_wrist
							{
								OFFSET 0.227297 0.008116 0.000384
								CHANNELS 3 Zrotation Yrotation Xrotation
								JOINT Left_palm
								{
									OFFSET 0.074607 -0.009248 -0.012277
									CHANNELS 3 Zrotation Yrotation Xrotation
									End Site
									{
										OFFSET 0.000000 0.000000 0.000000
									}
								}
							}
						}
					}
				}
				JOINT Right_collar
				{
					OFFSET -0.074980 0.111880 -0.037894
					CHANNELS 3 Zrotation Yrotation Xrotation
					JOINT Right_shoulder
					{
						OFFSET -0.087565 0.034353 -0.009323
						CHANNELS 3 Zrotation Yrotation Xrotation
						JOINT Right_elbow
						{
							OFFSET -0.236838 -0.013719 -0.019794
							CHANNELS 3 Zrotation Yrotation Xrotation
							JOINT Right_wrist
							{
								OFFSET -0.235053 0.006433 -0.003853
								CHANNELS 3 Zrotation Yrotation Xrotation
								JOINT Right_palm
								{
									OFFSET -0.075499 -0.006894 -0.009792
									CHANNELS 3 Zrotation Yrotation Xrotation
									End Site
									{
										OFFSET 0.000000 0.000000 0.000000
									}
								}
							}
						}
					}
				}
			}
		}
	}
}
MOTION
Frames: 16
Frame Time: 0.100000
-0.145194 0.025223 -0.159838 -174.321558 24.483116 -23.859929 -8.736631 3.559190 21.192021 -7.522396 -20.982810 -9.123076 6.238349 17.465053 -5.533655 -6.590109 14.416331 -7.980292 -24.487082 -5.893032 3.871984 1.470076 11.555193 23.869196 18.472583 -17.853138 -10.741927 -16.037743 12.081966 -15.809699 3.420795 2.412693 7.337926 -1.933376 2.106767 5.007323 -2.287234 2.916148 7.593839 -19.803593 12.440156 -0.673120 -13.145924 -4.311947 -7.269705 0.242516 3.666933 -7.342183 14.532047 -1.056799 -17.718018 -3.138355 -42.987247 -31.686639 6.643167 -11.191602 -15.985159 2.836462 0.423073 13.670052 16.894900 0.186838 2.486649 20.767802 -7.673304 35.924667 99.954524 58.644628 115.067011 -34.316111 19.057179 16.710743 12.450632 10.417775 -6.411693 
-0.142264 0.025117 -0.163113 -174.583647 24.505514 -23.620647 -8.361897 3.460710 20.312883 -7.643548 -20.726893 -8.781445 6.158329 17.143136 -5.392021 -6.610739 14.583979 -7.961783 -24.267618 -6.257423 3.314543 1.638204 11.207598 23.699472 18.402539 -17.449290 -10.120713 -15.769071 11.958729 -15.756765 3.270486 2.386390 7.900666 -1.914467 1.929171 5.253823 -2.173746 2.872501 7.693335 -19.638034 12.418941 -0.381268 -12.625406 -4.575197 -8.040977 0.668090 3.388869 -7.312899 14.292622 -1.182904 -17.833008 -3.071095 -42.983759 -31.481694 6.628515 -11.007089 -15.898680 2.792547 0.282407 13.483951 16.371506 0.385888 2.406670 21.194000 -7.479667 35.552391 100.099775 58.633950 115.679916 -34.040253 18.837779 17.095457 12.693722 10.660740 -6.550693 
-0.140578 0.025453 -0.166623 -174.551851 24.196508 -23.048268 -8.445607 3.268869 19.290848 -7.717122 -20.285485 -8.453533 6.414351 17.152526 -5.246520 -6.757218 14.547095 -8.079810 -24.001234 -6.443100 2.367285 1.537804 11.262108 23.690691 18.613680 -17.399238 -9.835458 -16.385976 12.036814 -15.978336 3.275430 2.421508 8.514085 -2.024845 2.030408 4.852583 -2.095387 3.000377 7.841420 -19.746505 12.430482 -0.624550 -12.155146 -4.450990 -8.079650 0.957967 3.126646 -7.482836 13.954876 -1.423258 -17.745984 -3.176272 -43.338227 -30.980783 6.925802 -10.828395 -15.668755 2.390143 0.117501 13.245411 16.064503 0.589806 2.604513 21.630325 -7.941284 35.426850 99.811483 58.510722 115.613148 -34.212738 18.892496 17.403172 13.036388 10.915313 -6.943932 
-0.140012 0.026383 -0.170720 -174.082732 23.007987 -22.188230 -8.853566 3.463359 17.701900 -7.828838 -19.601530 -7.651496 6.646291 17.446295 -5.009507 -6.230135 14.653898 -8.616830 -23.909349 -6.962696 0.539928 1.425319 11.910943 23.929417 20.305660 -17.217161 -9.439533 -20.157023 12.306338 -17.615049 3.777441 3.053078 10.245272 -2.687502 2.745564 4.183416 -2.203771 3.748334 7.938180 -21.383642 11.958442 -4.015088 -11.392621 -5.220332 -9.021593 1.950216 2.379235 -8.206621 12.665609 -1.058877 -17.482998 -4.936748 -41.292476 -27.690330 7.616155 -9.842955 -11.165974 0.298324 -0.114991 10.901705 15.356463 1.350186 3.121936 23.641498 -11.036198 35.133291 99.285432 58.283558 115.537403 -34.805234 19.026710 17.783317 14.852636 11.679658 -8.971836 
-0.139942 0.026632 -0.173488 -173.960467 22.553848 -20.712063 -8.865805 3.674650 15.862254 -7.955686 -19.495276 -7.454155 6.586709 17.322023 -4.789451 -5.690822 14.541812 -8.604395 -23.843841 -7.506238 -1.330040 1.531825 11.788781 23.986483 21.359830 -16.754436 -9.012803 -22.119126 11.427608 -18.355080 3.951799 3.401244 11.474475 -3.398757 2.927390 2.962346 -2.304077 4.005425 7.644747 -22.649602 11.285513 -6.541491 -10.763462 -5.084522 -11.450524 1.834248 1.796506 -8.437613 11.400950 0.358415 -17.403547 -7.429395 -34.767593 -25.975394 7.825275 -8.861308 -5.633159 -1.474002 -0.175778 7.829688 14.671715 1.627911 3.236653 25.173202 -13.317953 34.860599 98.778612 58.040415 115.787152 -34.092802 18.879273 17.386117 15.727280 12.023886 -9.990958 
-0.139314 0.026986 -0.176060 -174.198143 22.912387 -19.577536 -8.800279 3.679358 14.203319 -7.959790 -19.901734 -6.961590 6.426226 17.006734 -4.826331 -5.238269 15.128897 -8.176474 -23.323080 -7.547269 -2.504340 1.322489 11.603394 24.001517 21.924541 -17.453598 -8.948611 -23.361269 10.823104 -18.932731 3.748368 3.524422 12.915897 -4.001783 2.764891 2.077835 -2.357952 3.779355 7.446746 -22.197216 9.634482 -8.971341 -9.538698 -5.557684 -14.558163 0.555302 1.335796 -8.193911 10.050343 2.369057 -17.911909 -9.413380 -25.565307 -26.193115 8.205170 -7.430132 0.893896 -2.321382 -0.354291 4.501882 14.211479 1.731206 2.660795 25.964663 -15.008330 34.608410 98.491873 58.087198 116.577359 -33.315221 18.885812 17.494170 15.810771 11.979942 -10.302394 
-0.140445 0.026820 -0.177203 -174.658664 23.296063 -18.597837 -8.498160 3.766815 12.983710 -7.975221 -20.227386 -6.959530 6.135547 16.399440 -4.774937 -4.796435 15.914281 -7.996544 -22.939081 -7.821609 -3.272063 1.255109 11.279021 23.625330 22.199524 -17.853297 -8.714251 -23.913644 10.455838 -19.196389 3.582169 3.637034 13.592896 -4.495379 2.930133 2.024564 -2.415858 3.660696 7.254177 -20.132515 7.341485 -10.454998 -7.518140 -6.627448 -17.070123 -1.155125 1.840206 -7.705712 8.139350 3.918134 -17.280893 -10.229348 -21.090427 -25.796987 8.051381 -6.485698 4.114491 -2.643034 -0.467792 2.301291 13.736062 1.577383 2.244099 25.907889 -15.867996 34.270449 99.784069 57.584440 118.333331 -32.167459 18.429597 16.805462 15.599532 11.757484 -10.209790 
-0.142734 0.026583 -0.176657 -175.197187 24.073469 -18.004425 -8.182418 3.530623 12.383976 -8.077039 -20.513987 -7.195238 5.930470 15.702834 -4.541417 -4.629889 16.577471 -7.987526 -22.708003 -7.923274 -3.382795 1.126737 10.588894 23.266366 21.879168 -18.107939 -8.675057 -23.384029 10.231726 -18.917407 3.339489 3.633337 13.878407 -4.897725 3.081095 2.082642 -2.506328 3.573502 7.060523 -17.643032 6.013831 -10.854193 -5.711843 -6.931827 -17.836349 -2.564044 2.471734 -7.392298 6.449447 4.267745 -16.633898 -9.395273 -21.036221 -26.176349 7.962918 -6.341803 3.799453 -2.143200 -0.380038 2.018935 13.278142 1.474332 1.889171 26.119418 -15.627592 34.070313 100.693790 57.427324 119.609055 -30.896837 18.044853 16.597018 14.614975 11.299692 -9.520554 
-0.145317 0.027375 -0.175282 -175.358705 25.161689 -17.566006 -8.371922 3.131248 12.296950 -8.044640 -21.039018 -7.651689 6.065151 15.267021 -4.417459 -4.915613 17.006736 -7.929266 -22.573572 -7.709119 -3.471388 0.519284 10.010276 23.699838 21.447203 -18.669414 -9.146665 -22.682120 10.029152 -18.493653 2.819493 3.605617 14.164483 -5.330141 3.011591 1.900031 -2.742950 3.406813 6.935034 -15.269778 4.377517 -10.560866 -3.562215 -7.992360 -17.829496 -3.449693 2.478048 -7.293804 5.664666 3.741406 -16.329199 -8.556520 -21.352200 -26.709506 8.122713 -6.517854 3.494869 -1.280113 -0.145834 2.368654 12.833725 1.509330 1.422990 26.481298 -15.823634 34.079564 100.914551 57.635673 120.377690 -30.243673 17.933180 16.732630 13.245350 10.849961 -8.735962 
-0.148406 0.028072 -0.173277 -175.513593 25.777015 -17.331233 -8.395921 3.169229 12.613382 -7.984900 -21.451810 -8.359628 5.784391 14.932696 -4.438329 -4.777999 17.061563 -7.597011 -22.371279 -7.336849 -3.480975 0.029099 9.798514 24.102908 21.450598 -19.357071 -9.746419 -22.718171 10.013315 -18.163887 2.312957 3.475563 14.359114 -5.558399 2.759114 2.046405 -2.942994 3.073271 6.755515 -12.565554 1.181632 -10.587971 -0.736566 -10.283399 -18.085637 -4.646750 2.247679 -6.972155 5.036764 3.574420 -15.887535 -7.981632 -20.988783 -27.300182 8.398054 -6.727884 3.977705 -0.685379 0.011352 2.296904 12.422804 1.482973 0.872570 25.345723 -16.593362 33.784282 101.905497 57.902764 121.980183 -29.417285 18.230537 17.429327 11.879087 10.415938 -7.960014 
-0.151146 0.027274 -0.171206 -175.856387 24.925929 -17.061750 -8.336047 3.059830 12.325429 -7.667531 -21.054085 -8.446651 5.796281 15.308686 -4.701143 -4.587171 16.782865 -7.168012 -21.539318 -6.678656 -3.706293 -0.380251 10.235845 23.520537 21.716201 -20.018293 -10.003366 -23.232267 9.920659 -17.810792 2.159570 3.263931 14.406936 -5.502054 2.437230 1.921693 -2.911287 2.738537 6.705162 -10.097173 -0.365812 -10.957122 1.045377 -10.578166 -18.434254 -6.011512 1.851347 -6.536230 3.535111 3.394452 -14.982630 -8.951050 -18.319434 -24.881232 8.555759 -6.672213 6.571516 -0.798591 -0.310300 0.840912 11.902651 1.282408 0.570941 23.681623 -16.482232 32.272598 96.694009 60.261787 117.485868 -29.999517 19.193648 20.181636 11.704263 10.387281 -8.306430 
-0.154186 0.026546 -0.169032 -176.149563 23.274685 -16.931277 -7.985853 3.788741 12.158550 -7.525700 -20.384833 -8.397203 5.677636 15.103425 -5.015940 -4.348791 17.351533 -7.491224 -20.917548 -6.209666 -3.965159 -0.409541 10.781385 22.681481 21.953702 -19.981109 -9.891550 -23.901492 10.127939 -17.511894 2.220115 2.759272 14.343828 -5.599433 2.479459 2.010228 -2.783409 2.326440 6.486717 -7.919583 -0.859635 -11.472891 1.925977 -9.730224 -18.579614 -7.549026 1.245444 -6.172996 0.808823 1.774181 -14.368611 -8.448072 -14.976548 -23.172008 7.508365 -5.728574 8.372617 -1.137538 -0.146043 -1.401755 11.427075 1.110075 0.692007 23.607498 -17.036149 29.384547 80.593703 65.034935 96.255832 -29.310860 16.119620 14.185951 11.952086 9.551572 -8.686333 
-0.157341 0.026039 -0.167387 -176.583429 21.461704 -17.095140 -7.486540 4.231468 12.247843 -7.547337 -18.112778 -8.397226 5.712548 14.063305 -5.640522 -4.052901 16.460965 -7.358946 -20.147664 -5.784090 -4.183958 -0.823070 10.631333 22.054594 21.220094 -18.559646 -9.154727 -23.022856 8.849633 -16.525722 2.236570 2.155270 13.968121 -4.959088 1.847957 2.841367 -2.366295 1.611999 6.066337 -7.116162 0.613718 -12.469449 1.015604 -6.857574 -17.757025 -9.002478 0.551761 -5.650933 -8.315268 -2.357581 -14.042226 -5.387995 -11.186724 -21.248791 5.668625 -4.410657 6.896272 -1.731916 -0.781908 -1.349392 11.646760 0.366362 -0.025605 28.313486 -14.744770 22.792329 34.688957 68.274553 48.868625 -22.856964 12.163441 17.590969 11.013420 9.294210 -8.743708 
-0.162147 0.026664 -0.165526 -176.810372 19.630571 -17.740582 -6.941640 5.543304 13.182443 -7.622964 -15.514265 -8.535336 5.305733 11.311375 -6.409831 -3.032468 17.205306 -8.379188 -20.099202 -4.952056 -3.665937 -1.207378 9.051066 21.332493 19.432513 -15.032579 -7.970121 -20.000032 6.020669 -14.423876 2.265328 1.414885 13.666376 -4.102835 1.158358 3.979625 -1.911191 0.416592 4.823689 -6.413507 5.165263 -12.793014 -2.710114 -2.743399 -14.819252 -11.120425 -1.228221 -4.176679 -23.552443 -10.295609 -10.080268 -1.394871 -6.350403 -17.194109 2.390381 -3.357465 2.340254 -3.212748 -0.239451 -3.751745 12.636083 0.420538 -0.936465 39.561655 -8.592349 15.285159 -12.658595 53.927010 -10.757731 -16.670738 3.191626 0.019957 11.433686 7.765647 -9.269895 
-0.167328 0.028317 -0.162546 -176.740445 17.561813 -18.875125 -6.640758 7.169172 14.868876 -7.553796 -13.002551 -8.731853 5.676642 8.381922 -7.312467 -2.593773 18.933284 -9.537768 -20.092746 -3.306594 -2.758872 -1.838696 7.545278 21.037672 16.898943 -11.106477 -7.489908 -15.536964 1.922598 -11.438695 1.885514 0.674712 13.275803 -3.440970 0.068581 5.925420 -1.630543 -1.274954 3.018450 -4.812690 10.545654 -12.082649 -6.385906 2.390945 -11.888965 -14.446543 -6.081699 -1.367637 -41.382505 -17.969476 0.439995 2.063255 -6.543438 -5.759308 -1.657547 -3.369018 0.287796 -6.198365 0.812717 -9.183207 13.028241 2.286901 -1.348595 49.695762 -0.992258 10.658424 -28.101114 35.809622 -41.064984 -7.934003 -2.914891 -26.262652 12.517690 5.876781 -10.670457 
-0.169918 0.028895 -0.158449 -176.730564 14.716409 -19.556238 -6.538751 8.254208 15.608607 -7.023984 -10.212989 -8.411493 6.226785 6.542934 -8.591027 -2.591756 20.169863 -9.830245 -18.786148 -0.397611 -2.597396 -3.198889 6.492022 20.900225 14.293818 -8.708547 -7.862588 -11.063749 -1.443099 -7.582934 0.651640 -0.456672 13.017331 -2.407127 -1.799073 6.464563 -1.221523 -3.408665 0.894088 -2.005367 13.235768 -10.246483 -8.165924 5.286225 -7.786636 -18.742167 -13.363128 1.795956 -55.284155 -24.957792 13.899546 2.879019 -10.491800 6.218627 -6.485154 -4.366938 0.517986 -9.003894 2.085444 -14.799873 14.374496 5.281827 -2.017126 54.663377 5.145839 8.843397 -32.062232 22.993686 -62.637044 1.173097 -1.226046 -57.376396 12.400066 3.286791 -10.780418 
